Coordinates
version=1
nRows=17
nColumns=36
inDegrees=yes

Units are S.I. units (second, meters, Newtons, ...)
If the header above contains a line with 'inDegrees', this indicates whether rotational values are in degrees (yes) or radians (no).

endheader
time	pelvis_tilt	pelvis_list	pelvis_rotation	pelvis_tx	pelvis_ty	pelvis_tz	hip_flexion_r	hip_adduction_r	hip_rotation_r	knee_angle_r	knee_angle_r_beta	ankle_angle_r	subtalar_angle_r	mtp_angle_r	hip_flexion_l	hip_adduction_l	hip_rotation_l	knee_angle_l	knee_angle_l_beta	ankle_angle_l	subtalar_angle_l	mtp_angle_l	lumbar_extension	lumbar_bending	lumbar_rotation	arm_flex_r	arm_add_r	arm_rot_r	elbow_flex_r	pro_sup_r	arm_flex_l	arm_add_l	arm_rot_l	elbow_flex_l	pro_sup_l
      6.00000000	      5.11767790	     13.63355787	     -6.48115807	     -0.18704703	      0.98569562	      0.32874339	      0.22097837	     -5.34161006	      3.81054435	      7.89020488	      0.13771005	      5.02837913	     -4.63466954	     -7.49999987	     39.42561442	    -12.29003811	    -10.89915151	     17.66384389	      0.30829223	    -10.44610143	     -1.36632298	     -7.49999987	    -13.63236328	     -9.68589596	      3.91174029	     71.04237788	     10.51320202	     71.65845012	    119.18700004	     94.67048777	     50.47252604	      6.40946145	     57.73793970	    119.54597073	     73.66896803
      6.01666670	      5.08887497	     13.73368185	     -6.53718928	     -0.18907626	      0.98657475	      0.32794137	      0.24886822	     -5.44401301	      3.90719661	      7.90941693	      0.13804537	      5.03783212	     -4.61202769	     -7.49999987	     39.32773785	    -12.18471348	    -11.10402589	     17.87077522	      0.31190387	    -10.65215568	     -1.99202032	     -7.49999987	    -13.75425721	     -9.73422062	      3.86104054	     70.91152067	     10.68676746	     71.92450021	    119.19930649	     94.17852748	     50.33128655	      5.98498606	     56.96445426	    119.37986044	     73.17729983
      6.03333330	      5.00970636	     13.77441646	     -6.63883566	     -0.18920886	      0.98478812	      0.32826167	      0.21936349	     -5.51850653	      4.02278769	      7.59027636	      0.13247531	      4.98562622	     -4.41001692	     -7.49999987	     39.28601531	    -12.18237085	    -11.37176240	     17.86430066	      0.31179087	    -10.67440849	     -2.11651529	     -7.49999987	    -13.69760640	     -9.91050084	      3.84707780	     70.84489387	     10.66633593	     72.11358689	    119.46658210	     93.56025101	     50.17166072	      5.80281775	     56.02846835	    119.13641146	     72.64412690
      6.05000000	      4.92856040	     13.76509297	     -6.65010278	     -0.18953893	      0.98348233	      0.32840519	      0.18297840	     -5.47483463	      4.00274821	      7.38675368	      0.12892317	      4.67949199	     -4.57941675	     -7.49999987	     39.28797577	    -12.19640803	    -11.64456490	     17.81720891	      0.31096896	    -10.68529878	     -2.35525878	     -7.49999987	    -13.68608851	     -9.92597978	      3.98917028	     70.85838119	     10.67252108	     72.33734033	    119.69356697	     92.79601760	     49.96780706	      5.86568732	     55.44470339	    119.04244456	     72.14431002
      6.06666670	      4.89601330	     13.78397689	     -6.74619519	     -0.19182571	      0.98360990	      0.32901413	      0.09850191	     -5.50540392	      3.94390268	      7.20903943	      0.12582147	      4.76076859	     -4.56012281	     -7.49999987	     39.40066211	    -12.22510565	    -11.74725785	     17.95907052	      0.31344491	    -10.50288432	     -2.22234962	     -7.49999987	    -13.73108517	    -10.08503700	      4.11195489	     71.01026106	     10.76316842	     72.41329819	    119.77128854	     92.05038616	     49.95700958	      5.86028856	     55.01632863	    118.84518914	     71.73878394
      6.08333330	      4.71568518	     13.86623140	     -6.78805068	     -0.19108400	      0.98328685	      0.32892897	      0.28228265	     -5.60029595	      3.57992644	      7.30561377	      0.12750701	      4.53931859	     -4.63901559	     -7.49999987	     39.54523106	    -12.14456820	    -11.99945820	     17.94252687	      0.31315617	    -10.25956985	     -1.91772196	     -7.49999987	    -13.52017319	    -10.18354372	      4.37946620	     70.89141144	     10.63799272	     72.53815761	    119.75032201	     90.10513797	     49.57394572	      6.15933459	     54.82202891	    118.94899189	     70.76627529
      6.10000000	      4.94187305	     13.86066398	     -6.91933752	     -0.19272784	      0.98194531	      0.32912062	     -0.02366682	     -5.62610284	      3.42798974	      7.13933404	      0.12460489	      4.52630324	     -5.00810758	     -7.49999987	     39.45570917	    -12.18404848	    -12.22203160	     18.18267813	      0.31734760	     -9.76835323	     -1.38895686	     -7.49999987	    -13.84959163	    -10.31554384	      4.47312379	     71.29425067	     10.75498156	     72.22481355	    119.46674843	     95.56117936	     49.94977360	      6.41393276	     55.13602166	    119.00259230	     74.37256603
      6.11666670	      4.92342640	     13.83505279	     -7.03166214	     -0.19240953	      0.98210269	      0.32934609	     -0.06289256	     -5.63208860	      3.08718716	      7.09086832	      0.12375900	      4.27294239	     -5.36399206	     -7.49999987	     39.57760915	    -12.27455664	    -12.41732554	     18.29214679	      0.31925819	     -9.57347451	     -1.35689360	     -7.49999987	    -13.85213726	    -10.35806809	      4.47033090	     71.36005192	     10.91296269	     72.35100881	    119.67399176	     94.65284486	     49.88171197	      6.57732985	     55.51579883	    119.56813152	     73.52614022
      6.13333330	      4.99098522	     13.76646896	     -7.22242266	     -0.19144002	      0.97911934	      0.32848573	     -0.01226572	     -5.62719500	      2.26105543	      7.40364460	      0.12921797	      4.04893005	     -6.11835768	     -7.49999987	     39.68118882	    -12.42183361	    -12.48295059	     18.62363230	      0.32504370	     -9.04060676	     -1.25839524	     -7.49999987	    -13.86220150	    -10.41856469	      4.54360405	     71.35013504	     10.94364569	     72.38894058	    119.87366724	     93.92133668	     49.77858755	      6.77505711	     55.98592951	    119.88785045	     72.96279039
      6.15000000	      4.97052243	     13.75443719	     -7.19850934	     -0.19399381	      0.98092529	      0.32964912	      0.19268622	     -5.62560169	      1.59043478	      7.54023004	      0.13160184	      3.77537344	     -6.33562592	     -7.49999987	     39.86299758	    -12.38510389	    -12.54088612	     18.80910420	      0.32828080	     -9.03267645	     -1.33909408	     -7.49999987	    -13.90472376	    -10.44377635	      4.59331782	     71.29829257	     10.95064781	     72.42728020	    119.81083775	     93.25960664	     49.82464356	      6.78522024	     56.29804272	    119.95411632	     72.49545370
      6.16666670	      5.15843640	     13.67771173	     -7.28015152	     -0.19286582	      0.97920914	      0.32982064	      0.14056611	     -5.50816002	      1.30085455	      7.73000557	      0.13491405	      3.65358894	     -6.94313235	     -7.49999987	     39.73830226	    -12.42668541	    -12.63807803	     18.92569037	      0.33031561	     -8.61746549	     -1.07717946	     -7.49999987	    -14.11116123	    -10.51569083	      4.53410719	     71.17861983	     10.95698020	     72.16156663	    119.91160898	     95.55831841	     49.95970631	      6.73612996	     56.47752450	    119.87487073	     74.57331236
      6.18333330	      5.21254503	     13.49240558	     -7.24741673	     -0.19340719	      0.97865050	      0.32942033	      0.31918308	     -5.29320730	      0.92160523	      8.16382628	      0.14248565	      3.78755433	     -7.20261214	     -7.49999987	     39.83336312	    -12.42488911	    -12.50422353	     18.90899634	      0.33002424	     -8.24759404	     -0.72890622	     -7.49999987	    -14.23119362	    -10.35111202	      4.50380791	     71.09986719	     10.98981012	     72.30895278	    120.13722129	     94.65591107	     49.90584716	      6.69588144	     56.43400406	    119.88488726	     73.82632618
      6.20000000	      5.26166363	     13.53654696	     -7.36837712	     -0.19203101	      0.97767208	      0.32825907	      0.40522124	     -5.39741027	      0.54738322	      8.38358881	      0.14632123	      4.12908339	     -7.15949962	     -7.49999987	     39.91002845	    -12.34841502	    -12.46624293	     19.19476680	      0.33501188	     -7.94963408	     -0.52864532	     -7.49999987	    -14.23243985	    -10.45688445	      4.37003085	     70.95010758	     11.15101730	     72.41774609	    120.46563500	     94.27116133	     49.73486831	      6.60961271	     56.60596340	    119.91638278	     73.45107726
      6.21666670	      5.29287150	     13.51618557	     -7.35328254	     -0.19352609	      0.97654695	      0.32918241	      0.61603327	     -5.37577901	      0.33491094	      8.84110631	      0.15430641	      4.55375398	     -7.04115939	     -7.49999987	     39.94414584	    -12.22824225	    -12.27129619	     19.40167730	      0.33862315	     -7.96463989	     -0.62621835	     -7.49999987	    -14.29861588	    -10.47605082	      4.31278789	     70.91512546	     11.25438397	     72.47832056	    120.59870199	     92.99863390	     49.72377470	      6.50707939	     56.60390487	    119.88574110	     73.11101311
      6.23333330	      5.36027374	     13.42759088	     -7.37294871	     -0.19345742	      0.97515660	      0.32914122	      0.96760960	     -5.27061889	      0.33174441	      9.46184536	      0.16514035	      4.75271956	     -7.46474957	     -7.49999987	     40.01720599	    -12.21310960	    -12.08161487	     19.72722580	      0.34430504	     -7.83346759	     -0.88624733	     -7.49999987	    -14.42558527	    -10.45013978	      4.26173795	     70.84899281	     11.20481219	     72.47059863	    120.75415005	     92.03831104	     49.67304181	      6.43605001	     56.38024686	    119.75999999	     72.57558761
      6.25000000	      5.66017361	     13.30230513	     -7.40434030	     -0.19180878	      0.97567864	      0.32995369	      1.03407509	     -5.14015815	      0.37467305	     10.51816978	      0.18357669	      5.47583940	     -7.50531088	     -7.49999987	     39.82630562	    -12.20861116	    -11.73297023	     20.21225796	      0.35277045	     -7.69088506	     -1.24953481	     -7.49999987	    -14.73635009	    -10.44445929	      4.06315342	     70.72918550	     11.20144945	     72.52017374	    120.80343601	     90.52208402	     49.58378775	      6.27470878	     56.21564260	    119.60994949	     71.74482759
      6.26666670	      5.97461357	     13.12090880	     -7.23215759	     -0.19130065	      0.97425744	      0.32918612	      1.14120157	     -5.01492543	      0.03571441	     11.69697800	      0.20415078	      6.40355200	     -7.39491980	     -7.49999987	     39.70616934	    -12.09693009	    -11.50242351	     20.70444869	      0.36136080	     -7.26083519	     -1.41057647	     -7.49999987	    -15.16704093	    -10.23372184	      3.70269482	     70.53421316	     11.35410438	     72.44108867	    120.60387382	     93.78905063	     49.35274446	      5.78117746	     55.43240177	    119.37451762	     73.32616439
